<svg width="32" height="32" viewBox="0 0 32 32" fill="none" xmlns="http://www.w3.org/2000/svg">
<path d="M24 14C22.8986 13.9981 21.818 14.2999 20.877 14.8723C19.936 15.4446 19.171 16.2653 18.6661 17.2442C18.1612 18.223 17.936 19.3221 18.0152 20.4207C18.0944 21.5192 18.4749 22.5747 19.115 23.471L14 28.586L15.414 30L20.529 24.885C21.2984 25.4319 22.1859 25.7894 23.1195 25.9285C24.0531 26.0676 25.0064 25.9844 25.9017 25.6856C26.7971 25.3868 27.6093 24.8809 28.2722 24.209C28.9352 23.5371 29.4302 22.7182 29.7169 21.8189C30.0037 20.9196 30.0741 19.9654 29.9225 19.0337C29.7709 18.1021 29.4015 17.2194 28.8444 16.4574C28.2873 15.6955 27.5582 15.0758 26.7164 14.6488C25.8746 14.2217 24.9439 13.9995 24 14V14ZM24 24C23.2089 24 22.4355 23.7654 21.7777 23.3259C21.1199 22.8864 20.6072 22.2616 20.3045 21.5307C20.0017 20.7998 19.9225 19.9956 20.0769 19.2196C20.2312 18.4437 20.6122 17.731 21.1716 17.1716C21.731 16.6122 22.4437 16.2312 23.2196 16.0769C23.9956 15.9225 24.7998 16.0017 25.5307 16.3045C26.2616 16.6072 26.8864 17.1199 27.3259 17.7777C27.7654 18.4355 28 19.2089 28 20C27.9987 21.0605 27.5768 22.0771 26.827 22.827C26.0771 23.5768 25.0605 23.9987 24 24V24Z" fill="#727681"/>
<path d="M17 12C17.5933 12 18.1734 11.8241 18.6667 11.4944C19.1601 11.1648 19.5446 10.6962 19.7716 10.1481C19.9987 9.59987 20.0581 8.99667 19.9424 8.41473C19.8266 7.83279 19.5409 7.29824 19.1213 6.87868C18.7018 6.45912 18.1672 6.1734 17.5853 6.05765C17.0033 5.94189 16.4001 6.0013 15.8519 6.22836C15.3038 6.45543 14.8352 6.83994 14.5056 7.33329C14.1759 7.82664 14 8.40666 14 9C14.0008 9.79541 14.3171 10.558 14.8796 11.1204C15.442 11.6829 16.2046 11.9992 17 12V12ZM17 8C17.1978 8 17.3911 8.05865 17.5556 8.16853C17.72 8.27841 17.8482 8.43459 17.9239 8.61732C17.9996 8.80004 18.0194 9.00111 17.9808 9.19509C17.9422 9.38907 17.847 9.56726 17.7071 9.70711C17.5673 9.84696 17.3891 9.9422 17.1951 9.98079C17.0011 10.0194 16.8 9.99957 16.6173 9.92388C16.4346 9.84819 16.2784 9.72002 16.1685 9.55557C16.0586 9.39112 16 9.19778 16 9C16 8.73478 16.1054 8.48043 16.2929 8.29289C16.4804 8.10536 16.7348 8 17 8Z" fill="#727681"/>
<path d="M12 24H4V17.997L9 13L14.586 18.586L16 17.168L10.414 11.583C10.0389 11.2081 9.53033 10.9974 9 10.9974C8.46967 10.9974 7.96106 11.2081 7.586 11.583L4 15.168V4H24V10H26V4C25.9995 3.46973 25.7886 2.96133 25.4136 2.58637C25.0387 2.21141 24.5303 2.00053 24 2H4C3.46973 2.00053 2.96133 2.21141 2.58637 2.58637C2.21141 2.96133 2.00053 3.46973 2 4V24C2.00053 24.5303 2.21141 25.0387 2.58637 25.4136C2.96133 25.7886 3.46973 25.9995 4 26H12V24Z" fill="#727681"/>
</svg>
